<svg xmlns="http://www.w3.org/2000/svg" viewBox="0 0 240 180" fill="none" stroke="#ff650b" stroke-width="4" stroke-linecap="round" stroke-linejoin="round"><rect x="23" y="28" width="66" height="116" rx="12"/><path d="m43 69 6 9-4 6c3 9 9 15 17 18l6-5 9 7c4 4-2 11-8 11-17-1-31-15-33-31-1-6 3-15 7-15Z"/><path stroke="#bfc9d0" d="M115 48v76"/><circle cx="171" cy="90" r="36"/><ellipse cx="171" cy="90" rx="16" ry="36"/><path d="M139 77h64m-64 26h64"/><path stroke="#748697" d="M194 36c10 2 17 9 19 19m-19-32c18 2 31 15 33 32"/></svg>
